<?xml version="1.0" encoding="utf-8"?>
<!-- Generator: Adobe Illustrator 24.0.1, SVG Export Plug-In . SVG Version: 6.00 Build 0)  -->
<svg version="1.1" id="Livello_1" xmlns="http://www.w3.org/2000/svg" xmlns:xlink="http://www.w3.org/1999/xlink" x="0px" y="0px"
	 viewBox="0 0 527.6 316.8" style="enable-background:new 0 0 527.6 316.8;" xml:space="preserve">
<style type="text/css">
	.st0{fill:#A2C3C2;stroke:#FFFFFF;stroke-width:3;stroke-miterlimit:10;}
	.st1{fill:#B3B3B3;}
	.st2{fill:url(#SVGID_1_);}
	.st3{fill:#A2C3C2;}
	.st4{fill:url(#SVGID_2_);}
	.st5{fill:#BFBFBF;}
	.st6{fill:url(#SVGID_3_);}
	.st7{fill:url(#SVGID_4_);}
	.st8{fill:url(#SVGID_5_);}
	.st9{fill:#C1D6D5;}
</style>
<path class="st0" d="M33.4,227.1c0,0-0.1,0-0.1,0l-0.6,0.2"/>
<g>
	<g>
		<path class="st3" d="M462.8,228.5H183.9c0,0,3.3-1.8,4.7-2.7c1.6-1,4.4-3.3,4.4-3.3h260.9c0,0,2.6,2.1,3.5,2.8
			C459,226.6,462.8,228.5,462.8,228.5z"/>
	</g>
</g>
<g>
	<linearGradient id="SVGID_1_" gradientUnits="userSpaceOnUse" x1="-0.1042" y1="169.8467" x2="527.614" y2="169.8467">
		<stop  offset="0" style="stop-color:#155D73"/>
		<stop  offset="1" style="stop-color:#1371B9"/>
	</linearGradient>
	<path class="st2" d="M47.9,277.1c3.6-1.6,6.4-4,8.3-7.3c1.9-3.3,2.8-6.8,2.8-10.6c0-2.4-0.4-4.8-1.3-7.1c-0.8-2.4-2-4.5-3.5-6.3
		c-1.5-1.9-3.4-3.4-5.6-4.5c-2.2-1.2-4.6-1.7-7.3-1.7H0v77.3h37.3c3.4,0,6.6-0.4,9.6-1.3c3-0.9,5.7-2.1,7.9-3.8
		c2.3-1.7,4.1-3.7,5.4-6.2c1.3-2.5,2-5.3,2-8.6c0-5.1-1.3-9.3-3.9-12.7C55.8,280.8,52.3,278.4,47.9,277.1z M15,252.3h20.7
		c2.4,0,4.4,0.9,6,2.6c1.6,1.7,2.4,4.1,2.4,7.1c0,3-0.9,5.4-2.7,7.2c-1.8,1.7-3.9,2.6-6.5,2.6H15V252.3z M46.4,297.9
		c-0.5,1.2-1.2,2.3-2.1,3.2c-0.9,0.9-1.9,1.6-3.1,2.1c-1.2,0.5-2.5,0.8-3.9,0.8H15v-20.4h23.1c1.3,0,2.5,0.3,3.6,0.8
		c1.1,0.5,2,1.3,2.8,2.2c0.8,0.9,1.4,2.1,1.9,3.3c0.5,1.3,0.7,2.6,0.7,4C47.1,295.4,46.9,296.7,46.4,297.9z M94.4,239.5l-29.5,77.3
		h15.5l7.1-19.3h27l7.2,19.3H137l-29.4-77.3H94.4z M89.9,286.9l11.1-30.4l10.7,30.4H89.9z M180.4,239.5h16.2l-28.1,50.3v27h-14.9
		v-27.2l-28-50.1H142l19,37.2L180.4,239.5z M219.1,303.6h38.6v13.2h-53.7v-77.3h52.7v13.2h-37.7v18.6h32.5v12.2h-32.5V303.6z
		 M325.7,285.7c1.2,2.4,1.7,5.4,1.7,9c0,4.1-0.8,7.7-2.3,10.6c-1.6,2.9-3.7,5.3-6.3,7.1c-2.6,1.8-5.7,3.1-9.1,4
		c-3.4,0.8-7.1,1.3-10.8,1.3c-5.8,0-11.5-0.9-17.2-2.6c-5.7-1.7-10.7-4.2-15.2-7.4l6.6-13c0.7,0.7,1.8,1.5,3.5,2.6
		c1.7,1.1,3.7,2.1,6,3.2c2.3,1.1,4.9,1.9,7.7,2.7c2.8,0.7,5.7,1.1,8.7,1.1c8.3,0,12.4-2.6,12.4-7.9c0-1.7-0.5-3.1-1.4-4.2
		c-0.9-1.2-2.3-2.2-4-3c-1.7-0.9-3.8-1.7-6.3-2.4c-2.5-0.7-5.2-1.5-8.3-2.4c-3.7-1-6.9-2.1-9.6-3.3c-2.7-1.2-5-2.6-6.8-4.2
		c-1.8-1.6-3.2-3.5-4.1-5.7c-0.9-2.1-1.4-4.7-1.4-7.7c0-3.9,0.7-7.4,2.2-10.4c1.5-3,3.5-5.6,6-7.6c2.6-2,5.6-3.6,9-4.6
		c3.4-1.1,7.1-1.6,11-1.6c5.4,0,10.4,0.9,15,2.6c4.6,1.7,8.6,3.7,12,6l-6.6,12.2c-0.5-0.5-1.4-1.2-2.8-2.1c-1.3-0.9-3-1.7-4.9-2.6
		c-1.9-0.8-4-1.5-6.3-2.1c-2.2-0.6-4.5-0.9-6.9-0.9c-4.1,0-7.2,0.8-9.3,2.3c-2,1.5-3,3.7-3,6.4c0,1.6,0.4,2.9,1.1,4
		c0.8,1.1,1.9,2,3.3,2.8c1.5,0.8,3.3,1.5,5.5,2.2c2.2,0.7,4.8,1.3,7.7,2.1c3.8,1,7.2,2.1,10.3,3.3c3.1,1.2,5.7,2.6,7.8,4.4
		C322.9,281.2,324.6,283.3,325.7,285.7z M400.8,239.5h16v77.3h-15v-51.1l-19.9,38.1h-8.2l-19.9-38.1v51.1h-15v-77.3h16.1l22.9,44
		L400.8,239.5z M430.8,239.5h15v77.3h-15V239.5z M526.6,239.5l-27.5,39.2l26.7,38.1h-16.2l-18.3-27.6l-18.4,27.6h-16.3l26.7-38.1
		l-27.5-39.2H472l19.3,28.7l19.2-28.7H526.6z M527.6,221.5v11l-22.3,0c0,0-0.1,0-0.1,0l-9.3-0.2c-0.1,0-0.1,0-0.2,0l-6.2-0.3
		c-0.1,0-0.1,0-0.2,0l-1.9-0.2l-1.1-0.1c-0.1,0-0.2,0-0.3,0l-0.6-0.1l-0.8-0.1c-0.1,0-0.2,0-0.3,0l-1.4-0.2l-1.6-0.2
		c-0.1,0-0.2,0-0.3,0l-0.6-0.1l-0.7-0.1c-0.1,0-0.2,0-0.3,0l-3.1-0.6c-0.1,0-0.2,0-0.3-0.1l-3.1-0.8c-0.1,0-0.2-0.1-0.4-0.1l-3.1-1
		c-0.1,0-0.3-0.1-0.4-0.1l-1.5-0.6l-1.6-0.6c-0.1,0-0.1,0-0.2-0.1c-0.1,0-0.2-0.1-0.3-0.1l-3.1-1.6c-0.1-0.1-0.3-0.1-0.4-0.2
		c0,0-0.1,0-0.1,0l-3.1-2c-0.1-0.1-0.2-0.1-0.2-0.2c-0.1,0-0.1-0.1-0.2-0.1l-3.1-2.4c0,0,0,0-0.1-0.1c-0.1-0.1-0.2-0.2-0.3-0.3
		l-3.1-3c-0.1-0.1-0.2-0.2-0.4-0.4l-3.1-3.6c-0.1-0.1-0.2-0.2-0.3-0.4l-3.1-4.3c-0.1-0.1-0.2-0.2-0.2-0.3l-3.1-5
		c-0.1-0.1-0.1-0.2-0.2-0.3l-3.1-5.8c0-0.1-0.1-0.2-0.1-0.3l-3.1-6.7c0-0.1-0.1-0.2-0.1-0.2l-3.1-7.5c0-0.1-0.1-0.1-0.1-0.2
		l-3.1-8.4c0-0.1,0-0.1-0.1-0.2l-3.1-9.3c0,0,0-0.1,0-0.1l-3.1-10.1c0,0,0-0.1,0-0.1l-4.6-16.5c0,0,0-0.1,0-0.1l-6.2-23.6l-7.7-29.9
		l-4.6-16.5l-3-9.8l-3-8.5l-3-7l-1.4-2.8l-1.3-2.3l-1.2-1.7l-1-1.2l-0.9-0.7l-0.1,0.1l-0.7,0.5l-1,1.1l-1.2,1.7l-1.3,2.2l-1.4,2.8
		l-1.4,3.2l-3,7.7l-3,9l-3,10.1L357.9,111l-4.6,16.5c0,0,0,0.1,0,0.1l-3.1,10.2c0,0,0,0.1,0,0.1l-3.1,9.2c0,0.1,0,0.1-0.1,0.2
		l-3.1,8.1c0,0.1-0.1,0.2-0.1,0.3l-3.1,6.9c0,0.1-0.1,0.2-0.2,0.3l-1.5,2.9c0,0.1-0.1,0.2-0.2,0.3l-1.5,2.6
		c-0.1,0.1-0.1,0.2-0.2,0.3l-1.5,2.2c-0.1,0.1-0.2,0.3-0.3,0.4l-1.5,1.8c-0.1,0.2-0.3,0.3-0.5,0.5l-1.5,1.4
		c-0.2,0.2-0.4,0.4-0.7,0.5l-1.5,1c-0.3,0.2-0.6,0.4-1,0.5l-1.5,0.6c-0.4,0.2-0.9,0.3-1.3,0.3l-1.5,0.2c-0.5,0.1-1,0.1-1.4,0
		l-1.5-0.2c-0.4-0.1-0.9-0.2-1.3-0.3l-1.5-0.6c-0.3-0.1-0.7-0.3-1-0.5l-1.5-1c-0.2-0.2-0.5-0.3-0.7-0.5l-1.5-1.4
		c-0.2-0.2-0.3-0.3-0.5-0.5l-1.5-1.8c-0.1-0.1-0.2-0.3-0.3-0.4l-1.5-2.2c-0.1-0.1-0.2-0.2-0.2-0.3l-1.5-2.6
		c-0.1-0.1-0.1-0.2-0.2-0.3l-1.5-2.9c-0.1-0.1-0.1-0.2-0.2-0.3l-3.1-6.9c0-0.1-0.1-0.2-0.1-0.3l-3.1-8.1c0-0.1-0.1-0.1-0.1-0.2
		l-3.1-9.2c0,0,0-0.1,0-0.1l-3.1-10.2c0,0,0-0.1,0-0.1l-12.3-45l-4.6-16l-3-9.6l-3-8.4l-2.9-6.9l-1.4-2.7l-1.3-2.2l-1.2-1.7l-1-1.1
		l-0.8-0.6l-0.2,0.1l-0.7,0.6l-1,1.2l-1.2,1.7l-1.3,2.3l-1.4,2.8l-2.9,7l-3,8.5l-3,9.8l-3,10.8l-9.2,35.6l-6.2,23.6c0,0,0,0.1,0,0.1
		l-4.6,16.5c0,0,0,0.1,0,0.1l-3.1,10.1c0,0,0,0.1,0,0.1l-3.1,9.3c0,0.1,0,0.1-0.1,0.2l-3.1,8.4c0,0.1,0,0.1-0.1,0.2l-3.1,7.5
		c0,0.1-0.1,0.2-0.1,0.2l-3.1,6.7c0,0.1-0.1,0.2-0.1,0.3l-3.1,5.8c-0.1,0.1-0.1,0.2-0.2,0.3l-3.1,5c-0.1,0.1-0.1,0.2-0.2,0.3
		l-3.1,4.3c-0.1,0.1-0.2,0.2-0.3,0.4l-3.1,3.6c-0.1,0.1-0.2,0.3-0.4,0.4l-3.1,3c-0.1,0.1-0.3,0.2-0.4,0.4l-3.1,2.4
		c-0.1,0.1-0.3,0.2-0.4,0.3l-3.1,2c-0.1,0.1-0.3,0.2-0.5,0.3l-3.1,1.6c-0.1,0.1-0.3,0.1-0.4,0.2l-3.1,1.3c-0.1,0.1-0.3,0.1-0.4,0.1
		l-3.1,1c-0.1,0-0.2,0.1-0.4,0.1l-3.1,0.8c-0.1,0-0.2,0-0.3,0.1l-3.1,0.6c-0.1,0-0.2,0-0.3,0l-4.6,0.6c-0.1,0-0.2,0-0.3,0l-4.6,0.4
		c-0.1,0-0.1,0-0.2,0l-6.2,0.3c-0.1,0-0.1,0-0.2,0l-9.3,0.2c0,0-0.1,0-0.1,0L92,232.5H-0.1v-11H92l49.3-0.1l9.1-0.2l6-0.3l4.4-0.4
		l4.4-0.6l2.8-0.5l2.8-0.7l2.7-0.9l2.7-1.1l2.6-1.3l2.6-1.7l2.7-2.1l2.7-2.6l2.8-3.2l2.8-3.9l2.9-4.7l2.9-5.5l3-6.4l3-7.3l3-8.3
		l3-9.2l3-10l4.6-16.3l6.2-23.6l9.3-35.6c0,0,0-0.1,0-0.1l3.1-10.9c0,0,0-0.1,0-0.1l3.1-10c0-0.1,0-0.1,0.1-0.2l3.1-8.8
		c0-0.1,0.1-0.2,0.1-0.3l3.1-7.4c0-0.1,0.1-0.2,0.2-0.3l1.5-3.1c0.1-0.1,0.1-0.2,0.2-0.3l1.5-2.6c0.1-0.1,0.2-0.3,0.3-0.4l1.5-2.2
		c0.1-0.2,0.3-0.3,0.4-0.5l1.5-1.7c0.2-0.2,0.4-0.4,0.6-0.6l1.5-1.2c0.3-0.3,0.7-0.5,1-0.7l1.5-0.8c0.5-0.2,1-0.4,1.5-0.5l1.5-0.3
		c0.6-0.1,1.2-0.1,1.7,0l1.5,0.2c0.5,0.1,1,0.2,1.5,0.5l1.5,0.7c0.4,0.2,0.7,0.4,1.1,0.7l1.5,1.2c0.2,0.2,0.5,0.4,0.7,0.6l1.5,1.7
		c0.1,0.2,0.3,0.3,0.4,0.5l1.5,2.2c0.1,0.1,0.2,0.3,0.3,0.4l1.5,2.6c0.1,0.1,0.1,0.2,0.2,0.3l1.5,3c0.1,0.1,0.1,0.2,0.2,0.3l3.1,7.2
		c0,0.1,0.1,0.2,0.1,0.3l3.1,8.6c0,0.1,0,0.1,0.1,0.2l3.1,9.8c0,0,0,0.1,0,0.1l4.6,16.2l12.3,45l3,10l3,9.1l3,7.9l2.9,6.6l1.4,2.6
		l1.4,2.2l1.3,1.8l1.2,1.3l1,0.9l0.7,0.5l0.5,0.2l0.2,0l0.4-0.2l0.7-0.5l1-0.9l1.2-1.3l1.3-1.8l1.4-2.2l1.4-2.6l2.9-6.6l3-7.9l3-9.1
		l3-10l4.6-16.4l10.8-39.4c0,0,0-0.1,0-0.1l3.1-10.2c0-0.1,0-0.1,0-0.2l3.1-9.2c0-0.1,0.1-0.2,0.1-0.2l3.1-8c0-0.1,0.1-0.2,0.1-0.3
		l1.5-3.4c0-0.1,0.1-0.2,0.1-0.2l1.5-3c0.1-0.1,0.1-0.2,0.2-0.3l1.5-2.6c0.1-0.1,0.2-0.3,0.3-0.4l1.5-2.2c0.1-0.2,0.3-0.3,0.4-0.5
		l1.5-1.7c0.2-0.2,0.4-0.4,0.7-0.6l1.5-1.2c0.3-0.3,0.7-0.5,1.1-0.7l1.5-0.7c0.5-0.2,1-0.4,1.5-0.5l1.5-0.2c0.6-0.1,1.2-0.1,1.7,0
		l1.5,0.3c0.5,0.1,1,0.3,1.5,0.5l1.5,0.8c0.4,0.2,0.7,0.4,1,0.7l1.5,1.2c0.2,0.2,0.4,0.4,0.6,0.6l1.5,1.7c0.1,0.2,0.3,0.3,0.4,0.5
		l1.5,2.2c0.1,0.1,0.2,0.3,0.3,0.4l1.5,2.6c0.1,0.1,0.1,0.2,0.2,0.3l1.5,3.1c0.1,0.1,0.1,0.2,0.2,0.3l3.1,7.4c0,0.1,0.1,0.2,0.1,0.3
		l3.1,8.8c0,0.1,0,0.1,0.1,0.2l3.1,10c0,0,0,0.1,0,0.2l4.6,16.6c0,0,0,0.1,0,0.1l7.7,29.9l6.2,23.5l4.6,16.3l1.8,5.8h0l1.3,4.2
		l3,9.2l3,8.3l3,7.3l3,6.4l2.9,5.5l2.9,4.7l2.8,3.9l2.8,3.2l2.7,2.6l1.4,1.1l1.2,1l2.6,1.7l1.7,0.9l0.9,0.5l0.7,0.3l2,0.8l2.7,0.9
		l2.7,0.7l3.7,0.6l2.1,0.3l2.2,0.3l1.7,0.1l1.4,0.1l0,0l0.5,0l6,0.3l9.1,0.2L527.6,221.5z"/>
</g>
<g>
	<path class="st3" d="M170.2,185.6c-0.1-0.5-0.2-1-0.5-1.5l-0.7-1.5c-0.2-0.4-0.4-0.7-0.7-1.1l-1.2-1.5c-0.2-0.2-0.4-0.5-0.6-0.7
		l-1.7-1.5c-0.2-0.1-0.3-0.3-0.5-0.4l-2.2-1.5c-0.1-0.1-0.3-0.2-0.4-0.3l-2.6-1.5c-0.1-0.1-0.2-0.1-0.3-0.2l-3-1.5
		c-0.1,0-0.2-0.1-0.2-0.1l-3.4-1.5c-0.1,0-0.1-0.1-0.2-0.1l-3.8-1.5c0,0-0.1,0-0.1-0.1l-4.2-1.5c-0.1,0-0.1,0-0.2-0.1l-9.3-3.1
		c-0.1,0-0.1,0-0.2,0l-10.3-3.1c0,0-0.1,0-0.1,0l-39.5-10.7L67.9,146l-10-3l-9.1-3l-7.9-3l-3.4-1.4l-3.1-1.4l-2.7-1.4l-2.3-1.3
		l-1.8-1.3l-1.3-1.1l-0.9-1l-0.5-0.7l-0.1-0.4l0-0.1l0.2-0.5l0.5-0.7l0.9-1l1.3-1.1l1.8-1.3l2.3-1.3l2.7-1.4l3.1-1.4l3.4-1.4
		l1.1-0.4v-11.7l-5.1,1.9c-0.1,0-0.1,0.1-0.2,0.1L33,108c-0.1,0-0.1,0.1-0.2,0.1l-3.3,1.5c-0.1,0-0.1,0.1-0.2,0.1l-2.9,1.5
		c-0.1,0-0.2,0.1-0.3,0.2l-2.6,1.5c-0.1,0.1-0.2,0.1-0.3,0.2l-2.2,1.5c-0.1,0.1-0.3,0.2-0.4,0.3l-1.8,1.5c-0.2,0.1-0.3,0.3-0.5,0.5
		l-1.4,1.5c-0.2,0.2-0.4,0.4-0.5,0.7l-1,1.5c-0.2,0.3-0.4,0.6-0.5,1l-0.6,1.5c-0.2,0.4-0.3,0.9-0.3,1.3l-0.2,1.5
		c-0.1,0.5-0.1,1,0,1.4l0.2,1.5c0.1,0.4,0.2,0.9,0.3,1.3l0.6,1.5c0.1,0.4,0.3,0.7,0.5,1l1,1.5c0.2,0.2,0.3,0.5,0.5,0.7l1.4,1.5
		c0.2,0.2,0.3,0.3,0.5,0.5l1.8,1.5c0.1,0.1,0.3,0.2,0.4,0.3l2.2,1.5c0.1,0.1,0.2,0.1,0.3,0.2l2.6,1.5c0.1,0.1,0.2,0.1,0.3,0.2
		l2.9,1.5c0.1,0,0.1,0.1,0.2,0.1l3.3,1.5c0.1,0,0.1,0.1,0.2,0.1l3.6,1.5c0.1,0,0.1,0.1,0.2,0.1l8.1,3.1c0.1,0,0.1,0,0.2,0.1l9.3,3.1
		c0,0,0.1,0,0.1,0l10.2,3.1c0,0,0.1,0,0.1,0l16.5,4.6l39.5,10.7l10.1,3l9.1,3l4,1.5l3.6,1.5l3.2,1.4l2.8,1.4l2.3,1.3l1.7,1.2l1.1,1
		l0.5,0.7l0,0.1l-0.6,0.8l-1.2,1l-1.7,1.2l-2.3,1.3l-2.8,1.4l-3.3,1.4l-3.7,1.5l-4.1,1.5l-9.3,3l-10.4,3l-11.2,3L91,211.7l-26.2,6.7
		l44.3,0l2.6-0.7l11.3-3.1c0,0,0.1,0,0.1,0l10.5-3.1c0.1,0,0.1,0,0.2,0l9.4-3.1c0.1,0,0.1,0,0.2-0.1l4.2-1.5c0.1,0,0.1,0,0.2-0.1
		l3.9-1.5c0.1,0,0.1-0.1,0.2-0.1l3.5-1.5c0.1,0,0.2-0.1,0.2-0.1l3.1-1.5c0.1-0.1,0.2-0.1,0.3-0.2l2.6-1.5c0.1-0.1,0.3-0.2,0.4-0.2
		l2.2-1.5c0.2-0.1,0.3-0.3,0.5-0.4l1.7-1.5c0.2-0.2,0.4-0.4,0.6-0.6l1.2-1.5c0.3-0.3,0.5-0.7,0.7-1l0.8-1.5c0.2-0.5,0.4-1,0.5-1.5
		l0.3-1.5c0.1-0.6,0.1-1.2,0-1.8L170.2,185.6z"/>
</g>
<g>
	<path class="st3" d="M19,21.9l9.3,3.1c0,0,0.1,0,0.1,0l10.1,3.1c0,0,0.1,0,0.1,0l10.9,3.1l17.4,4.6L114.6,48l10.8,3l9.8,3l8.6,3
		l3.7,1.5l3.3,1.4l2.8,1.4l2.3,1.3l1.7,1.2l1.2,1l0.6,0.7l0.1,0.1l-0.6,0.8l-1.1,1l-1.7,1.2l-2.3,1.3l-2.8,1.4l-3.2,1.4l-3.6,1.4
		l-8.5,3l-9.6,3l-10.5,3l-16.9,4.6L75.8,94l-11,3.1l-10.2,3.1c0,0-0.1,0-0.1,0l-0.5,0.2V112l3.9-1.3l10-3l10.8-3l22.8-6.1l17-4.6
		l10.7-3.1c0,0,0.1,0,0.1,0l9.8-3.1c0.1,0,0.1,0,0.2-0.1l8.7-3.1c0.1,0,0.1-0.1,0.2-0.1L152,83c0.1,0,0.1-0.1,0.2-0.1l3.4-1.5
		c0.1,0,0.2-0.1,0.2-0.1l3-1.5c0.1-0.1,0.2-0.1,0.3-0.2l2.6-1.5c0.1-0.1,0.3-0.2,0.4-0.3l2.2-1.5c0.2-0.1,0.3-0.3,0.5-0.4l1.7-1.5
		c0.2-0.2,0.4-0.4,0.6-0.7l1.2-1.5c0.3-0.3,0.5-0.7,0.7-1.1l0.7-1.5c0.2-0.5,0.4-1,0.5-1.5l0.2-1.5c0.1-0.6,0.1-1.2,0-1.8l-0.3-1.5
		c-0.1-0.5-0.3-1-0.5-1.5l-0.8-1.5c-0.2-0.4-0.4-0.7-0.7-1l-1.2-1.5c-0.2-0.2-0.4-0.4-0.6-0.6l-1.7-1.5c-0.2-0.1-0.3-0.3-0.5-0.4
		l-2.2-1.5c-0.1-0.1-0.3-0.2-0.4-0.3l-2.6-1.5c-0.1-0.1-0.2-0.1-0.3-0.2l-3.1-1.5c-0.1,0-0.2-0.1-0.2-0.1l-3.5-1.5
		c-0.1,0-0.1-0.1-0.2-0.1l-3.9-1.5c-0.1,0-0.1-0.1-0.2-0.1l-8.8-3.1c-0.1,0-0.1,0-0.2-0.1l-10-3.1c0,0-0.1,0-0.1,0l-10.9-3.1
		c0,0-0.1,0-0.1,0L69.7,25.2l-17.2-4.6l-10.8-3l-10-3l-9.2-3l-8.3-3l-7.4-3L0.4,2.6l-0.5-0.3v12.1l2.5,1.1c0.1,0,0.2,0.1,0.2,0.1
		l7.6,3.1c0.1,0,0.1,0,0.2,0.1l8.5,3.1C18.9,21.9,18.9,21.9,19,21.9z"/>
</g>
<g>
	<path class="st3" d="M45.2,153.4c-0.1,0-0.1,0-0.2-0.1l0,0v65.1h6v-63.1L45.2,153.4z"/>
</g>
<g>
	<polygon class="st3" points="49.6,34.2 45,32.9 45,135.6 48.8,137 51,137.7 51,34.6 	"/>
</g>
<g>
	<polygon class="st3" points="51,17.2 51,3 48,0 45,3 45,15.5 	"/>
</g>
</svg>
