<?xml version="1.0" encoding="utf-8"?>
<!-- Generator: Adobe Illustrator 24.0.1, SVG Export Plug-In . SVG Version: 6.00 Build 0)  -->
<svg version="1.1" id="Livello_1" xmlns="http://www.w3.org/2000/svg" xmlns:xlink="http://www.w3.org/1999/xlink" x="0px" y="0px"
	 viewBox="0 0 377.7 362.9" style="enable-background:new 0 0 377.7 362.9;" xml:space="preserve">
<style type="text/css">
	.st0{fill:#A2C3C2;stroke:#FFFFFF;stroke-width:3;stroke-miterlimit:10;}
	.st1{fill:#B3B3B3;}
	.st2{fill:url(#SVGID_1_);}
	.st3{fill:#A2C3C2;}
	.st4{fill:url(#SVGID_2_);}
	.st5{fill:#BFBFBF;}
	.st6{fill:url(#SVGID_3_);}
	.st7{fill:url(#SVGID_4_);}
	.st8{fill:url(#SVGID_5_);}
	.st9{fill:#C1D6D5;}
</style>
<g>
	<linearGradient id="SVGID_1_" gradientUnits="userSpaceOnUse" x1="59.0387" y1="170.3398" x2="312.8796" y2="170.3398">
		<stop  offset="0" style="stop-color:#155D73"/>
		<stop  offset="1" style="stop-color:#1371B9"/>
	</linearGradient>
	<path class="st2" d="M305.4,240.7l-2-0.6l-1.9-0.8l-1.9-1l-1.9-1.2l-1.9-1.5l-2-1.9l-2.1-2.4l-2.1-2.9l-2.2-3.5l-2.2-4.2l-2.3-4.9
		l-2.3-5.7l-2.3-6.4l-2.4-7.1l-2.4-7.7l-3.6-12.7l-4.8-18.3l-6-23.3c0,0,0-0.1,0-0.1l-3.6-13c0-0.1,0-0.1,0-0.2l-2.4-7.8
		c0-0.1,0-0.1-0.1-0.2l-2.4-6.9c0-0.1-0.1-0.2-0.1-0.3l-2.4-5.7c-0.1-0.1-0.1-0.2-0.2-0.4l-1.2-2.4c-0.1-0.1-0.1-0.2-0.2-0.3
		l-1.2-2.1c-0.1-0.1-0.2-0.3-0.3-0.4l-1.2-1.7c-0.1-0.2-0.3-0.4-0.4-0.5l-1.2-1.3c-0.2-0.2-0.5-0.5-0.7-0.7l-1.2-1
		c-0.3-0.3-0.7-0.5-1.1-0.7l-1.2-0.6c-0.5-0.3-1.1-0.4-1.6-0.5l-1.2-0.2c-0.6-0.1-1.3-0.1-1.9,0l-1.2,0.2c-0.6,0.1-1.1,0.3-1.7,0.5
		l-1.2,0.6c-0.4,0.2-0.8,0.4-1.2,0.7l-1.2,0.9c-0.3,0.2-0.5,0.4-0.7,0.7l-1.2,1.3c-0.2,0.2-0.3,0.4-0.4,0.5l-1.2,1.7
		c-0.1,0.1-0.2,0.3-0.3,0.4l-1.2,2c-0.1,0.1-0.1,0.2-0.2,0.3l-1.2,2.4c0,0.1-0.1,0.2-0.1,0.3l-1.2,2.7c0,0.1-0.1,0.2-0.1,0.3
		l-2.4,6.2c0,0.1-0.1,0.2-0.1,0.3l-2.4,7.2c0,0.1,0,0.1-0.1,0.2l-2.4,8c0,0,0,0.1,0,0.1l-8.4,30.7l-3.6,12.8l-2.4,7.8l-2.3,7
		l-2.3,6.1l-2.3,5l-1,2l-1,1.7l-0.9,1.3l-0.8,0.9l-0.5,0.5l-0.5-0.5l-0.8-0.9l-0.9-1.3l-1-1.7l-1-2l-2.3-5l-2.3-6.1l-2.3-7l-2.4-7.8
		l-9.6-35l-3.6-12.6c0-0.1,0-0.1,0-0.2l-2.4-7.6c0-0.1,0-0.1-0.1-0.2l-2.4-6.7c0-0.1-0.1-0.2-0.1-0.3l-2.4-5.6
		c-0.1-0.1-0.1-0.2-0.2-0.4l-1.2-2.4c-0.1-0.1-0.1-0.2-0.2-0.3l-1.2-2c-0.1-0.1-0.2-0.3-0.3-0.4l-1.2-1.7c-0.1-0.2-0.3-0.4-0.4-0.5
		l-1.2-1.3c-0.2-0.2-0.5-0.5-0.7-0.7l-1.2-0.9c-0.4-0.3-0.7-0.5-1.2-0.7l-1.2-0.6c-0.5-0.2-1.1-0.4-1.7-0.5l-1.2-0.2
		c-0.6-0.1-1.3-0.1-1.9,0l-1.2,0.2c-0.6,0.1-1.1,0.3-1.6,0.5l-1.2,0.6c-0.4,0.2-0.8,0.4-1.1,0.7l-1.2,1c-0.3,0.2-0.5,0.4-0.7,0.7
		l-1.2,1.3c-0.2,0.2-0.3,0.4-0.4,0.5l-1.2,1.7c-0.1,0.1-0.2,0.3-0.3,0.4l-1.2,2.1c-0.1,0.1-0.1,0.2-0.2,0.3l-1.2,2.4
		c-0.1,0.1-0.1,0.2-0.2,0.4l-2.4,5.7c0,0.1-0.1,0.2-0.1,0.3l-2.4,6.9c0,0.1,0,0.1-0.1,0.2l-2.4,7.8c0,0,0,0.1,0,0.1l-2.4,8.5
		c0,0,0,0.1,0,0.1L102,176l-3.6,12.7l-2.4,7.7l-2.4,7.1l-2.3,6.4l-2.3,5.7l-2.3,4.9l-2.2,4.2l-2.2,3.5l-2.1,2.9l-2.1,2.4l-2,1.9
		l-1.9,1.5l-1.9,1.2l-1.9,1l-1.9,0.8l-2,0.6l-2.1,0.5l-5.4,1c1.9,3.8,3.9,7.5,6.1,11.1l1.7-0.3c0.1,0,0.2,0,0.3-0.1l2.4-0.6
		c0.1,0,0.3-0.1,0.4-0.1l2.4-0.8c0.1,0,0.3-0.1,0.4-0.2l2.4-1c0.2-0.1,0.3-0.1,0.5-0.2l2.4-1.2c0.2-0.1,0.3-0.2,0.5-0.3l2.4-1.5
		c0.2-0.1,0.3-0.2,0.5-0.3l2.4-1.9c0.2-0.1,0.3-0.3,0.4-0.4l2.4-2.3c0.1-0.1,0.3-0.3,0.4-0.4l2.4-2.8c0.1-0.1,0.2-0.3,0.3-0.4
		l2.4-3.3c0.1-0.1,0.2-0.2,0.2-0.4l2.4-3.9c0.1-0.1,0.1-0.2,0.2-0.3l2.4-4.5c0.1-0.1,0.1-0.2,0.1-0.3l2.4-5.2c0-0.1,0.1-0.2,0.1-0.2
		l2.4-5.9c0-0.1,0.1-0.1,0.1-0.2l2.4-6.6c0-0.1,0-0.1,0.1-0.2l2.4-7.2c0,0,0-0.1,0-0.1l2.4-7.9c0,0,0-0.1,0-0.1l3.6-12.8
		c0,0,0-0.1,0-0.1l12-46.1l2.4-8.4l2.4-7.6l2.3-6.6l2.3-5.4l1-2l1-1.7l0.9-1.2l0.1-0.2l0.9,1.3l1,1.6l1,2l2.3,5.3l2.3,6.5l2.3,7.4
		l3.6,12.5l9.6,35.1c0,0.1,0,0.1,0,0.2l2.4,7.9c0,0.1,0,0.1,0,0.2l2.4,7.2c0,0.1,0.1,0.2,0.1,0.2l2.4,6.3c0,0.1,0.1,0.2,0.1,0.3
		l2.4,5.4c0.1,0.1,0.1,0.2,0.2,0.3l1.2,2.3c0.1,0.1,0.1,0.2,0.2,0.3l1.2,2c0.1,0.1,0.2,0.2,0.2,0.4l1.2,1.7c0.1,0.2,0.2,0.3,0.3,0.4
		l1.2,1.4c0.2,0.2,0.3,0.4,0.5,0.5l1.2,1.1c0.2,0.2,0.5,0.4,0.8,0.6l1.2,0.8c0.3,0.2,0.7,0.4,1.1,0.6l1.2,0.5
		c0.5,0.2,0.9,0.3,1.4,0.4l1.2,0.2c0.5,0.1,1,0.1,1.6,0l1.2-0.2c0.5-0.1,1-0.2,1.4-0.4l1.2-0.5c0.4-0.1,0.7-0.3,1.1-0.6l1.2-0.8
		c0.3-0.2,0.5-0.4,0.8-0.6l1.2-1.1c0.2-0.2,0.4-0.3,0.5-0.5l1.2-1.4c0.1-0.1,0.2-0.3,0.3-0.4l1.2-1.7c0.1-0.1,0.2-0.2,0.2-0.4l1.2-2
		c0.1-0.1,0.1-0.2,0.2-0.3l1.2-2.3c0.1-0.1,0.1-0.2,0.2-0.3l2.4-5.4c0-0.1,0.1-0.2,0.1-0.3l2.4-6.3c0-0.1,0.1-0.2,0.1-0.2l2.4-7.2
		c0-0.1,0-0.1,0-0.2l2.4-7.9c0,0,0-0.1,0-0.1l3.6-12.9l8.4-30.7l2.4-7.8l2.3-7l2.3-5.9l1.1-2.4l1-2.1l1-1.6l0.8-1.2l0.1-0.1l1,1.4
		l1,1.7l1,2l2.3,5.4l2.3,6.6l2.3,7.6l3.6,12.8l6,23.3l4.8,18.4c0,0,0,0.1,0,0.1l3.6,12.8c0,0,0,0.1,0,0.1l2.4,7.9c0,0,0,0.1,0,0.1
		l2.4,7.2c0,0.1,0,0.1,0.1,0.2l2.4,6.6c0,0.1,0.1,0.1,0.1,0.2l2.4,5.9c0,0.1,0.1,0.2,0.1,0.2l2.4,5.2c0,0.1,0.1,0.2,0.1,0.3l2.4,4.5
		c0.1,0.1,0.1,0.2,0.2,0.3l2.4,3.9c0.1,0.1,0.2,0.3,0.2,0.4l2.4,3.3c0.1,0.1,0.2,0.3,0.3,0.4l2.4,2.8c0.1,0.1,0.2,0.3,0.4,0.4
		l2.4,2.3c0.1,0.1,0.3,0.3,0.4,0.4l2.4,1.9c0.2,0.1,0.3,0.2,0.5,0.3l2.4,1.5c0.2,0.1,0.3,0.2,0.5,0.3l2.4,1.2
		c0.2,0.1,0.3,0.2,0.5,0.2l2.4,1c0.1,0.1,0.3,0.1,0.4,0.2l2.4,0.8c0.1,0,0.3,0.1,0.4,0.1l4.5,1.1c2.2-3.5,4.2-7.2,6-10.9
		L305.4,240.7z"/>
</g>
<g>
	<linearGradient id="SVGID_2_" gradientUnits="userSpaceOnUse" x1="44.5518" y1="139.0919" x2="327.523" y2="139.0919">
		<stop  offset="0" style="stop-color:#155D73"/>
		<stop  offset="1" style="stop-color:#1371B9"/>
	</linearGradient>
	<path class="st4" d="M58.5,239.3l5.3-1l1.9-0.5l1.8-0.6l1.7-0.7l0.4-0.2c-8.3-17.1-13-36.2-13-56.4c0-71.4,58.1-129.5,129.5-129.5
		c71.4,0,129.5,58.1,129.5,129.5c0,20.3-4.7,39.4-13,56.5l0.2,0.1l1.7,0.7l1.8,0.6l7.4,1.8l0.6,0.2c8.5-18.2,13.3-38.5,13.3-59.9
		c0-78-63.5-141.5-141.5-141.5S44.6,101.9,44.6,179.9c0,21.2,4.7,41.4,13.1,59.5L58.5,239.3z"/>
</g>
<g>
	<linearGradient id="SVGID_3_" gradientUnits="userSpaceOnUse" x1="66.8136" y1="286.6749" x2="305.2114" y2="286.6749">
		<stop  offset="0" style="stop-color:#155D73"/>
		<stop  offset="1" style="stop-color:#1371B9"/>
	</linearGradient>
	<path class="st6" d="M301.6,255.2c-0.2,0-0.4-0.1-0.6-0.2l-2.4-0.8c-0.2-0.1-0.4-0.2-0.7-0.2l-2.4-1c-0.2-0.1-0.5-0.2-0.7-0.3
		l-1.4-0.7c-23.3,34.6-62.8,57.3-107.5,57.3c-44.7,0-84.3-22.8-107.5-57.4l-1.5,0.8c-0.2,0.1-0.5,0.2-0.7,0.3l-2.4,1
		c-0.2,0.1-0.4,0.2-0.7,0.2l-2.4,0.8c-0.2,0.1-0.4,0.1-0.6,0.2l-2.4,0.6c-0.2,0-0.3,0.1-0.5,0.1l-0.5,0.1
		C92,295.3,136,321.4,186,321.4c50,0,94-26.1,119.2-65.3L301.6,255.2z"/>
</g>
<polygon class="st9" points="172.8,158.4 201.3,150.6 205.1,136.4 169.5,146.2 "/>
<path class="st9" d="M270.1,238.2l-2-2.6l-2.2-2l-2.8-2.1l-3.2-1.9l-3.5-1.8l-3.9-1.7l-8.6-3.3l-9.9-3.3l-10.9-3.3l-24.9-6.8
	l-0.6,0.7c-0.2,0.3-0.5,0.5-0.8,0.8l-1.2,1.1c-0.4,0.3-0.7,0.6-1.1,0.9l-1.2,0.8c-0.5,0.3-1.1,0.6-1.6,0.8l-1.2,0.5
	c-0.7,0.3-1.4,0.5-2.1,0.5l-1.2,0.2c-0.4,0.1-0.8,0.1-1.2,0.1c-0.4,0-0.8,0-1.2-0.1l-1.2-0.2c-0.7-0.1-1.4-0.3-2.1-0.5l-1.2-0.5
	c-0.6-0.2-1.1-0.5-1.6-0.8l-1.2-0.8c-0.4-0.3-0.8-0.6-1.1-0.9l-1.2-1.1c-0.3-0.2-0.5-0.5-0.8-0.8l-1.2-1.4c-0.2-0.2-0.4-0.4-0.5-0.7
	l-1.2-1.7c-0.1-0.2-0.2-0.4-0.4-0.5l-1.2-2c-0.1-0.1-0.2-0.3-0.2-0.4l-1.2-2.2l-3.7-1l-10.4-3.2l-9.4-3.2l-8.2-3.1l-6.8-3.1
	l-2.7-1.4l-2.3-1.4l-1.8-1.3l-1.4-1.2l-0.9-0.9l-0.4-0.6l-0.1-0.3l0,0l0.1-0.3l0.4-0.6l0.9-0.9l1.4-1.2l1.8-1.3l2.3-1.4l2.7-1.4
	l6.8-3.1l8.2-3.1l9.4-3.2l1.3-0.4l-3.3-12.2l-1.7,0.5l-9.8,3.3l-8.7,3.3l-7.5,3.4l-3.4,1.8l-0.3,0.2l-4.2,16.2c0,0.1,0,0.1,0,0.2
	l-3.3,11.6l1.8,1.6l2.7,2l3,1.9l3.4,1.8l7.5,3.4l8.8,3.4l9.9,3.3l10.8,3.3l17.3,4.9l41.1,11.2l10.5,3.2l9.4,3.1l8,3.1l3.3,1.5
	l2.8,1.4l2.3,1.4l1.7,1.2l1.1,1l0.4,0.5l-0.4,0.5l-1.1,1l-1.8,1.2l-2.4,1.4l-2.8,1.4l-7.3,3.1l-8.9,3.1l-10.2,3.2l-17.2,4.8l-31.2,8
	l-24.6,6.4l-17.3,4.9l-10.7,3.3l-2.6,0.9c0,0,5.5,3.3,7.4,4.4c3.3,1.9,8.3,3.9,8.3,3.9l1.1-0.3l17.1-4.8l24.6-6.4l31.2-8l17.5-4.9
	l10.6-3.3l9.4-3.3l8-3.4l3.6-1.8l3.1-1.8l2.7-1.9l2.8-2.4l2.1-2.6l1.5-3.1l0.6-3.5l-0.5-3.5L270.1,238.2z"/>
<path class="st9" d="M250.5,98.5c0.1,0.2,0.2,0.4,0.2,0.5l2.4,5.7c0.1,0.2,0.1,0.3,0.2,0.5l2.4,6.8c0,0.1,0.1,0.2,0.1,0.3l0.3,1
	l1.4,1l1.1,1l0.4,0.5l-0.4,0.5l-1.1,1l-0.2,0.1l0.8,2.7c0,0.1,0.1,0.2,0.1,0.2l2.7,9.8l1.5-0.9l2.7-1.9l2.7-2.4l2-2.6l1.5-3.1
	l0.5-3.5l-0.6-3.5l-1.5-3.1l-2.1-2.6l-2.2-2l-2.9-2.1l-3.2-1.9l-3.6-1.8l-6.7-2.8L250.5,98.5z"/>
<path class="st9" d="M133.7,76.9l17.3,4.9l24.8,6.5l37.1,9.6l4.3,1.2l0.2-0.4c0.1-0.1,0.1-0.3,0.2-0.4l1.2-2.4
	c0.1-0.2,0.2-0.3,0.3-0.5l1.2-2c0.1-0.2,0.3-0.4,0.4-0.7l1.2-1.7c0.2-0.3,0.4-0.6,0.7-0.8l1.2-1.3c0.3-0.3,0.6-0.6,0.9-0.8l-8.4-2.4
	L179,76l-24.6-6.4l-17.1-4.8l-2.2-0.7c0,0-5.6,2.7-7.6,3.7c-2.9,1.5-8.1,4.7-8.1,4.7l3.6,1.2L133.7,76.9z"/>
<polygon class="st9" points="238.8,139.7 244.4,137.7 241,125.5 234.9,127.7 225.4,130.7 221.5,144.9 228.5,142.9 "/>
</svg>
